<svg id="visual" viewBox="0 0 1920 1080" width="1920" height="1080" xmlns="http://www.w3.org/2000/svg" xmlns:xlink="http://www.w3.org/1999/xlink" version="1.1"><g stroke-width="1" stroke-linejoin="bevel"><path d="M853.3 540L853.3 360L640 360Z" fill="#403828" stroke="#403828"></path><path d="M640 360L640 540L853.3 540Z" fill="#2c2720" stroke="#2c2720"></path><path d="M640 540L853.3 720L853.3 540Z" fill="#ffd369" stroke="#ffd369"></path><path d="M853.3 360L853.3 180L640 360Z" fill="#6c5b38" stroke="#6c5b38"></path><path d="M853.3 180L640 180L640 360Z" fill="#836e40" stroke="#836e40"></path><path d="M640 540L640 720L853.3 720Z" fill="#cca958" stroke="#cca958"></path><path d="M853.3 720L1066.7 540L853.3 540Z" fill="#403828" stroke="#403828"></path><path d="M853.3 540L1066.7 540L853.3 360Z" fill="#ffd369" stroke="#ffd369"></path><path d="M853.3 360L1066.7 360L853.3 180Z" fill="#6c5b38" stroke="#6c5b38"></path><path d="M1066.7 540L1066.7 360L853.3 360Z" fill="#cca958" stroke="#cca958"></path><path d="M426.7 360L426.7 540L640 360Z" fill="#e5be61" stroke="#e5be61"></path><path d="M640 360L426.7 540L640 540Z" fill="#181818" stroke="#181818"></path><path d="M640 540L426.7 540L640 720Z" fill="#403828" stroke="#403828"></path><path d="M640 180L426.7 360L640 360Z" fill="#564930" stroke="#564930"></path><path d="M853.3 720L1066.7 720L1066.7 540Z" fill="#2c2720" stroke="#2c2720"></path><path d="M1066.7 360L1066.7 180L853.3 180Z" fill="#836e40" stroke="#836e40"></path><path d="M640 180L426.7 180L426.7 360Z" fill="#e5be61" stroke="#e5be61"></path><path d="M426.7 540L426.7 720L640 720Z" fill="#403828" stroke="#403828"></path><path d="M1066.7 180L853.3 0L853.3 180Z" fill="#9b8148" stroke="#9b8148"></path><path d="M853.3 180L853.3 0L640 180Z" fill="#564930" stroke="#564930"></path><path d="M640 180L640 0L426.7 180Z" fill="#403828" stroke="#403828"></path><path d="M426.7 720L640 900L640 720Z" fill="#ffd369" stroke="#ffd369"></path><path d="M640 720L640 900L853.3 720Z" fill="#b39550" stroke="#b39550"></path><path d="M853.3 720L853.3 900L1066.7 720Z" fill="#403828" stroke="#403828"></path><path d="M640 900L853.3 900L853.3 720Z" fill="#2c2720" stroke="#2c2720"></path><path d="M853.3 0L640 0L640 180Z" fill="#564930" stroke="#564930"></path><path d="M1066.7 540L1280 540L1066.7 360Z" fill="#ffd369" stroke="#ffd369"></path><path d="M1066.7 360L1280 360L1066.7 180Z" fill="#403828" stroke="#403828"></path><path d="M1066.7 720L1280 540L1066.7 540Z" fill="#ffd369" stroke="#ffd369"></path><path d="M1280 540L1280 360L1066.7 360Z" fill="#403828" stroke="#403828"></path><path d="M426.7 180L213.3 360L426.7 360Z" fill="#ffd369" stroke="#ffd369"></path><path d="M426.7 360L213.3 360L426.7 540Z" fill="#6c5b38" stroke="#6c5b38"></path><path d="M426.7 540L213.3 540L426.7 720Z" fill="#ffd369" stroke="#ffd369"></path><path d="M213.3 360L213.3 540L426.7 540Z" fill="#564930" stroke="#564930"></path><path d="M853.3 900L1066.7 900L1066.7 720Z" fill="#9b8148" stroke="#9b8148"></path><path d="M1066.7 720L1280 720L1280 540Z" fill="#6c5b38" stroke="#6c5b38"></path><path d="M1280 180L1066.7 0L1066.7 180Z" fill="#e5be61" stroke="#e5be61"></path><path d="M1066.7 180L1066.7 0L853.3 0Z" fill="#836e40" stroke="#836e40"></path><path d="M640 0L426.7 0L426.7 180Z" fill="#b39550" stroke="#b39550"></path><path d="M426.7 180L213.3 180L213.3 360Z" fill="#403828" stroke="#403828"></path><path d="M426.7 720L426.7 900L640 900Z" fill="#9b8148" stroke="#9b8148"></path><path d="M213.3 720L426.7 900L426.7 720Z" fill="#cca958" stroke="#cca958"></path><path d="M1066.7 900L1280 720L1066.7 720Z" fill="#403828" stroke="#403828"></path><path d="M1280 360L1280 180L1066.7 180Z" fill="#181818" stroke="#181818"></path><path d="M213.3 540L213.3 720L426.7 720Z" fill="#2c2720" stroke="#2c2720"></path><path d="M426.7 0L213.3 180L426.7 180Z" fill="#b39550" stroke="#b39550"></path><path d="M640 900L853.3 1080L853.3 900Z" fill="#564930" stroke="#564930"></path><path d="M853.3 900L853.3 1080L1066.7 900Z" fill="#e5be61" stroke="#e5be61"></path><path d="M640 1080L853.3 1080L640 900Z" fill="#6c5b38" stroke="#6c5b38"></path><path d="M426.7 900L640 1080L640 900Z" fill="#ffd369" stroke="#ffd369"></path><path d="M1066.7 1080L1280 900L1066.7 900Z" fill="#564930" stroke="#564930"></path><path d="M1066.7 900L1280 900L1280 720Z" fill="#e5be61" stroke="#e5be61"></path><path d="M1280 180L1280 0L1066.7 0Z" fill="#6c5b38" stroke="#6c5b38"></path><path d="M213.3 720L213.3 900L426.7 900Z" fill="#564930" stroke="#564930"></path><path d="M426.7 900L426.7 1080L640 1080Z" fill="#564930" stroke="#564930"></path><path d="M426.7 0L213.3 0L213.3 180Z" fill="#b39550" stroke="#b39550"></path><path d="M853.3 1080L1066.7 1080L1066.7 900Z" fill="#2c2720" stroke="#2c2720"></path><path d="M213.3 900L426.7 1080L426.7 900Z" fill="#403828" stroke="#403828"></path><path d="M213.3 540L0 540L213.3 720Z" fill="#ffd369" stroke="#ffd369"></path><path d="M213.3 720L0 720L213.3 900Z" fill="#6c5b38" stroke="#6c5b38"></path><path d="M213.3 360L0 540L213.3 540Z" fill="#ffd369" stroke="#ffd369"></path><path d="M0 360L0 540L213.3 360Z" fill="#181818" stroke="#181818"></path><path d="M0 360L213.3 360L213.3 180Z" fill="#2c2720" stroke="#2c2720"></path><path d="M1280 540L1493.3 540L1280 360Z" fill="#836e40" stroke="#836e40"></path><path d="M1280 360L1493.3 360L1280 180Z" fill="#cca958" stroke="#cca958"></path><path d="M1280 180L1493.3 180L1280 0Z" fill="#2c2720" stroke="#2c2720"></path><path d="M1280 720L1493.3 540L1280 540Z" fill="#181818" stroke="#181818"></path><path d="M1493.3 720L1493.3 540L1280 720Z" fill="#6c5b38" stroke="#6c5b38"></path><path d="M1493.3 540L1493.3 360L1280 360Z" fill="#403828" stroke="#403828"></path><path d="M0 180L0 360L213.3 180Z" fill="#9b8148" stroke="#9b8148"></path><path d="M0 540L0 720L213.3 720Z" fill="#ffd369" stroke="#ffd369"></path><path d="M1493.3 900L1493.3 720L1280 900Z" fill="#564930" stroke="#564930"></path><path d="M1280 900L1493.3 720L1280 720Z" fill="#836e40" stroke="#836e40"></path><path d="M1493.3 360L1493.3 180L1280 180Z" fill="#ffd369" stroke="#ffd369"></path><path d="M213.3 0L0 180L213.3 180Z" fill="#e5be61" stroke="#e5be61"></path><path d="M1066.7 1080L1280 1080L1280 900Z" fill="#b39550" stroke="#b39550"></path><path d="M0 900L213.3 1080L213.3 900Z" fill="#836e40" stroke="#836e40"></path><path d="M213.3 900L213.3 1080L426.7 1080Z" fill="#564930" stroke="#564930"></path><path d="M1280 1080L1493.3 900L1280 900Z" fill="#403828" stroke="#403828"></path><path d="M213.3 0L0 0L0 180Z" fill="#836e40" stroke="#836e40"></path><path d="M0 720L0 900L213.3 900Z" fill="#9b8148" stroke="#9b8148"></path><path d="M1493.3 180L1493.3 0L1280 0Z" fill="#181818" stroke="#181818"></path><path d="M1493.3 540L1706.7 540L1493.3 360Z" fill="#b39550" stroke="#b39550"></path><path d="M1493.3 360L1706.7 360L1493.3 180Z" fill="#564930" stroke="#564930"></path><path d="M1493.3 180L1706.7 180L1493.3 0Z" fill="#ffd369" stroke="#ffd369"></path><path d="M1493.3 720L1706.7 540L1493.3 540Z" fill="#836e40" stroke="#836e40"></path><path d="M1706.7 720L1706.7 540L1493.3 720Z" fill="#b39550" stroke="#b39550"></path><path d="M1706.7 540L1706.7 360L1493.3 360Z" fill="#6c5b38" stroke="#6c5b38"></path><path d="M0 900L0 1080L213.3 1080Z" fill="#564930" stroke="#564930"></path><path d="M1280 1080L1493.3 1080L1493.3 900Z" fill="#2c2720" stroke="#2c2720"></path><path d="M1493.3 900L1706.7 720L1493.3 720Z" fill="#6c5b38" stroke="#6c5b38"></path><path d="M1706.7 900L1706.7 720L1493.3 900Z" fill="#cca958" stroke="#cca958"></path><path d="M1706.7 360L1706.7 180L1493.3 180Z" fill="#6c5b38" stroke="#6c5b38"></path><path d="M1493.3 1080L1706.7 900L1493.3 900Z" fill="#ffd369" stroke="#ffd369"></path><path d="M1706.7 180L1706.7 0L1493.3 0Z" fill="#cca958" stroke="#cca958"></path><path d="M1493.3 1080L1706.7 1080L1706.7 900Z" fill="#ffd369" stroke="#ffd369"></path><path d="M1706.7 360L1920 360L1706.7 180Z" fill="#e5be61" stroke="#e5be61"></path><path d="M1706.7 180L1920 180L1706.7 0Z" fill="#836e40" stroke="#836e40"></path><path d="M1706.7 540L1920 540L1706.7 360Z" fill="#b39550" stroke="#b39550"></path><path d="M1706.7 720L1920 540L1706.7 540Z" fill="#9b8148" stroke="#9b8148"></path><path d="M1920 720L1920 540L1706.7 720Z" fill="#564930" stroke="#564930"></path><path d="M1920 720L1706.7 720L1706.7 900Z" fill="#181818" stroke="#181818"></path><path d="M1920 540L1920 360L1706.7 360Z" fill="#181818" stroke="#181818"></path><path d="M1920 900L1920 720L1706.7 900Z" fill="#6c5b38" stroke="#6c5b38"></path><path d="M1920 360L1920 180L1706.7 180Z" fill="#cca958" stroke="#cca958"></path><path d="M1706.7 1080L1920 900L1706.7 900Z" fill="#cca958" stroke="#cca958"></path><path d="M1920 180L1920 0L1706.7 0Z" fill="#836e40" stroke="#836e40"></path><path d="M1706.7 1080L1920 1080L1920 900Z" fill="#cca958" stroke="#cca958"></path></g></svg>